<svg xmlns="http://www.w3.org/2000/svg"
	xmlns:xlink="http://www.w3.org/1999/xlink"
	width="71px" height="10px">
<defs>
</defs>
<path fill-rule="evenodd" fill="rgb(255,255,255)" d=" M70.6515 3.67636 C70.4222 4.0289 69.9866 4.42542 69.3446 4.86594 C68.9044 5.17882 68.6258 5.41674 68.5089 5.57968 C68.392 5.74273 68.3335 5.95638 68.3335 6.22073 C68.3335 6.22073 68.3335 6.61726 68.3335 6.61726 C68.3335 6.61726 66.5108 6.61726 66.5108 6.61726 C66.5108 6.61726 66.5108 6.12821 66.5108 6.12821 C66.5108 5.70525 66.6047 5.33743 66.7928 5.02455 C66.9808 4.71177 67.3247 4.37916 67.8245 4.02662 C68.306 3.69619 68.6235 3.4275 68.7772 3.22036 C68.9307 3.01332 69.0076 2.78201 69.0076 2.52644 C69.0076 2.24009 68.8975 2.022 68.6774 1.87217 C68.4573 1.72244 68.1501 1.64747 67.7557 1.64747 C67.0679 1.64747 66.2838 1.86339 65.4034 2.29513 C65.4034 2.29513 64.6536 0.847809 64.6536 0.847809 C65.6761 0.297114 66.7606 0.0217171 67.9071 0.0217171 C68.8516 0.0217171 69.6026 0.239803 70.1597 0.675985 C70.7169 1.11216 70.9954 1.69373 70.9954 2.42069 C70.9954 2.90541 70.8808 3.32393 70.6515 3.67636 Z M58.8394 3.56732 C59.0296 3.69288 59.4801 3.91872 60.191 4.24472 C61.1309 4.67655 61.7752 5.10943 62.1238 5.54333 C62.4722 5.97735 62.6465 6.50935 62.6465 7.13935 C62.6465 8.01171 62.3198 8.69902 61.6664 9.20129 C61.0129 9.70355 60.1038 9.95468 58.9391 9.95468 C57.8661 9.95468 56.9169 9.76086 56.0915 9.37311 C56.0915 9.37311 56.0915 7.46979 56.0915 7.46979 C56.7701 7.76057 57.3444 7.96545 57.8145 8.0844 C58.2845 8.20336 58.7144 8.26284 59.1042 8.26284 C59.5719 8.26284 59.9307 8.17693 60.1807 8.0051 C60.4305 7.83327 60.5555 7.5778 60.5555 7.23849 C60.5555 7.0491 60.5005 6.88058 60.3904 6.73291 C60.2804 6.58535 60.1187 6.44326 59.9055 6.30665 C59.6923 6.17014 59.2578 5.95205 58.6021 5.65238 C57.9876 5.37481 57.5267 5.10829 57.2195 4.85272 C56.9123 4.59725 56.6669 4.29986 56.4835 3.96054 C56.3001 3.62132 56.2084 3.22479 56.2084 2.77096 C56.2084 1.91626 56.5099 1.24434 57.1129 0.755288 C57.7159 0.266239 58.5493 0.0217171 59.6132 0.0217171 C60.136 0.0217171 60.6346 0.081193 61.1092 0.200154 C61.5838 0.319111 62.0801 0.4866 62.5984 0.702416 C62.5984 0.702416 61.9105 2.29513 61.9105 2.29513 C61.3741 2.08365 60.9304 1.93609 60.5796 1.85234 C60.2288 1.7687 59.8837 1.72678 59.5444 1.72678 C59.1408 1.72678 58.8313 1.81713 58.6158 1.99774 C58.4003 2.17844 58.2926 2.41409 58.2926 2.70487 C58.2926 2.88558 58.3361 3.04306 58.4232 3.1774 C58.5103 3.31185 58.6491 3.44175 58.8394 3.56732 Z M47.722 9.82251 C47.722 9.82251 44.8743 9.82251 44.8743 9.82251 C44.8743 9.82251 44.8743 0.160501 44.8743 0.160501 C44.8743 0.160501 48.0315 0.160501 48.0315 0.160501 C49.673 0.160501 50.9479 0.576851 51.8558 1.40956 C52.7638 2.24226 53.2177 3.4054 53.2177 4.89898 C53.2177 6.48953 52.7466 7.70771 51.8042 8.55363 C50.8619 9.39955 49.5011 9.82251 47.722 9.82251 Z M48.1415 1.83912 C48.1415 1.83912 47.0066 1.83912 47.0066 1.83912 C47.0066 1.83912 47.0066 8.13067 47.0066 8.13067 C47.0066 8.13067 47.9214 8.13067 47.9214 8.13067 C49.9757 8.13067 51.0029 7.0711 51.0029 4.95185 C51.0029 2.8767 50.0491 1.83912 48.1415 1.83912 Z M39.0635 9.52512 C38.4352 9.81156 37.6924 9.95468 36.8349 9.95468 C35.5418 9.95468 34.5376 9.63643 33.8222 8.99972 C33.1069 8.36311 32.7492 7.49189 32.7492 6.38595 C32.7492 6.38595 32.7492 0.160501 32.7492 0.160501 C32.7492 0.160501 34.8746 0.160501 34.8746 0.160501 C34.8746 0.160501 34.8746 6.07534 34.8746 6.07534 C34.8746 6.81996 35.0304 7.36632 35.3423 7.71431 C35.6541 8.06241 36.17 8.23641 36.89 8.23641 C37.5869 8.23641 38.0925 8.06127 38.4066 7.71101 C38.7207 7.36075 38.8778 6.81119 38.8778 6.06212 C38.8778 6.06212 38.8778 0.160501 38.8778 0.160501 C38.8778 0.160501 41.0032 0.160501 41.0032 0.160501 C41.0032 0.160501 41.0032 6.41239 41.0032 6.41239 C41.0032 7.12613 40.8369 7.7518 40.5045 8.28928 C40.172 8.82686 39.6917 9.23877 39.0635 9.52512 Z M24.5379 9.95468 C22.9971 9.95468 21.8141 9.52512 20.9887 8.66597 C20.1633 7.80684 19.7506 6.57327 19.7506 4.96507 C19.7506 3.35697 20.1643 2.12888 20.9921 1.28069 C21.8198 0.432593 23.0063 0.00849915 24.5516 0.00849915 C26.0969 0.00849915 27.2789 0.435898 28.0974 1.2906 C28.9159 2.1454 29.3252 3.37463 29.3252 4.97829 C29.3252 6.57761 28.9125 7.80684 28.0871 8.66597 C27.2617 9.52512 26.0786 9.95468 24.5379 9.95468 Z M24.5516 1.71356 C23.7032 1.71356 23.0635 1.98782 22.6326 2.53635 C22.2015 3.08488 21.986 3.89889 21.986 4.97829 C21.986 6.05779 22.1993 6.87066 22.6257 7.41692 C23.0522 7.96328 23.6895 8.23641 24.5379 8.23641 C26.2391 8.23641 27.0897 7.1504 27.0897 4.97829 C27.0897 2.80184 26.2437 1.71356 24.5516 1.71356 Z M10.8308 0.160501 C10.8308 0.160501 12.963 0.160501 12.963 0.160501 C12.963 0.160501 12.963 8.13067 12.963 8.13067 C12.963 8.13067 17.0419 8.13067 17.0419 8.13067 C17.0419 8.13067 17.0419 9.82251 17.0419 9.82251 C17.0419 9.82251 10.8308 9.82251 10.8308 9.82251 C10.8308 9.82251 10.8308 0.160501 10.8308 0.160501 Z M5.83846 1.91843 C5.45779 1.7907 5.08411 1.72678 4.71729 1.72678 C3.91479 1.72678 3.29349 2.01653 2.85329 2.59583 C2.41307 3.17523 2.19297 3.98264 2.19297 5.01794 C2.19297 7.1724 3.03437 8.24962 4.71729 8.24962 C5.4234 8.24962 6.27868 8.08007 7.28292 7.74075 C7.28292 7.74075 7.28292 9.45903 7.28292 9.45903 C6.45752 9.78946 5.53583 9.95468 4.51783 9.95468 C3.055 9.95468 1.9361 9.52842 1.16121 8.67589 C0.386229 7.82336 -0.00121342 6.5997 -0.00121342 5.00472 C-0.00121342 4.00019 0.189 3.12019 0.569673 2.36452 C0.950247 1.60896 1.49706 1.02955 2.21016 0.626418 C2.92313 0.223281 3.75887 0.0217171 4.71729 0.0217171 C5.69404 0.0217171 6.67526 0.248687 7.66123 0.702416 C7.66123 0.702416 6.97339 2.36783 6.97339 2.36783 C6.59735 2.196 6.21904 2.04627 5.83846 1.91843 Z M67.5012 7.75397 C67.8818 7.75397 68.1764 7.85093 68.3851 8.04475 C68.5937 8.23868 68.6981 8.51625 68.6981 8.87746 C68.6981 9.22555 68.5925 9.49981 68.3817 9.70025 C68.1707 9.90068 67.8772 10.0009 67.5012 10.0009 C67.116 10.0009 66.8179 9.90285 66.6071 9.70686 C66.3961 9.51086 66.2906 9.23433 66.2906 8.87746 C66.2906 8.50736 66.3938 8.22763 66.6002 8.03814 C66.8065 7.84876 67.1068 7.75397 67.5012 7.75397 Z"/>
</svg>