<svg xmlns="http://www.w3.org/2000/svg"
	xmlns:xlink="http://www.w3.org/1999/xlink"
	width="21px" height="12px">
<defs>
</defs>
<path fill-rule="evenodd" fill="rgb(255,255,255)" d=" M20.9994 9.00009 C20.9994 7.34326 19.7799 6.00004 18.2755 6.00004 C18.1711 6.00004 18.0682 6.00715 17.9669 6.01978 C17.3635 4.5471 16.0197 3.52141 14.4574 3.52141 C14.0398 3.52141 13.6381 3.59565 13.2615 3.73111 C12.449 1.54265 10.4976 3.8854e-005 8.21814 3.8854e-005 C5.20933 3.8854e-005 2.77033 2.68638 2.77033 6.00004 C2.77033 6.00054 2.77033 6.00084 2.77033 6.00134 C2.75473 6.00104 2.73933 6.00004 2.72373 6.00004 C1.21942 6.00004 -0.000174464 7.34326 -0.000174464 9.00009 C-0.000174464 10.6397 1.1944 11.9713 2.67722 11.9987 C2.67722 11.9987 2.67722 12.0001 2.67722 12.0001 C2.67722 12.0001 18.3221 12.0001 18.3221 12.0001 C18.3221 12.0001 18.3221 11.9987 18.3221 11.9987 C19.8049 11.9713 20.9994 10.6397 20.9994 9.00009 Z"/>
</svg>