<svg xmlns="http://www.w3.org/2000/svg"
	xmlns:xlink="http://www.w3.org/1999/xlink"
	width="16px" height="15px">
<path fill-rule="evenodd" fill="rgb(255,255,255)" d=" M8.63494 0.386557 C8.63494 0.386557 10.7234 4.53852 10.7234 4.53852 C10.7234 4.53852 15.3934 5.20431 15.3934 5.20431 C15.9742 5.28713 16.2061 5.98748 15.7858 6.38945 C15.7858 6.38945 12.4066 9.6213 12.4066 9.6213 C12.4066 9.6213 13.2043 14.1848 13.2043 14.1848 C13.3036 14.7523 12.6964 15.1852 12.1769 14.9172 C12.1769 14.9172 7.99991 12.7626 7.99991 12.7626 C7.99991 12.7626 3.82298 14.9172 3.82298 14.9172 C3.30345 15.1852 2.69627 14.7523 2.79548 14.1848 C2.79548 14.1848 3.59321 9.6213 3.59321 9.6213 C3.59321 9.6213 0.213986 6.38945 0.213986 6.38945 C-0.206298 5.98748 0.0256106 5.28713 0.606457 5.20431 C0.606457 5.20431 5.27642 4.53852 5.27642 4.53852 C5.27642 4.53852 7.36488 0.386557 7.36488 0.386557 C7.62464 -0.12986 8.37519 -0.12986 8.63494 0.386557 Z"/>
</svg>