<svg xmlns="http://www.w3.org/2000/svg"
	xmlns:xlink="http://www.w3.org/1999/xlink"
	width="15px" height="16px">
<path fill-rule="evenodd" fill="rgb(255,255,255)" d=" M11 16 C11 16 1.43339e-006 16 1.43339e-006 16 C1.43339e-006 16 1.43339e-006 1.12004e-005 1.43339e-006 1.12004e-005 C1.43339e-006 1.12004e-005 11 1.12004e-005 11 1.12004e-005 C13.2091 1.12004e-005 15 1.79087 15 4.00001 C15 4.00001 15 12 15 12 C15 14.2091 13.2091 16 11 16 Z M5 10 C5 10 9.00001 10 9.00001 10 C9.00001 10 9.00001 9 9.00001 9 C9.00001 9 5 9 5 9 C5 9 5 10 5 10 Z M11 5.00001 C11 5.00001 3 5.00001 3 5.00001 C3 5.00001 3 7 3 7 C3 7 11 7 11 7 C11 7 11 5.00001 11 5.00001 Z"/>
</svg>