<svg xmlns="http://www.w3.org/2000/svg"
	xmlns:xlink="http://www.w3.org/1999/xlink"
	width="14px" height="18px">
<path fill-rule="evenodd" fill="rgb(255,255,255)" d=" M6.97698 18 C6.97698 18 7.16334e-006 11.06 7.16334e-006 7.125 C7.16334e-006 3.18997 3.13402 1.27562e-009 7 1.27562e-009 C10.866 1.27562e-009 14 3.18997 14 7.125 C14 11.06 6.97698 18 6.97698 18 Z M7 3.00001 C5.16875 3.00001 3.68422 4.51104 3.68422 6.375 C3.68422 8.23896 5.16875 9.75 7 9.75 C8.83127 9.75 10.3158 8.23896 10.3158 6.375 C10.3158 4.51104 8.83127 3.00001 7 3.00001 Z"/>
</svg>