<svg xmlns="http://www.w3.org/2000/svg"
	xmlns:xlink="http://www.w3.org/1999/xlink"
	width="16px" height="14px">
<defs>
</defs>
<path fill-rule="evenodd" fill="rgb(255,255,255)" d=" M9.03754 0.00311088 C5.37245 0.00311088 2.3668 2.45986 2.10151 6.0768 C2.10151 6.0768 0.000567669 6.0768 0.000567669 6.0768 C0.000567669 6.0768 3.42616 11.6145 3.42616 11.6145 C3.42616 11.6145 6.85175 6.0768 6.85175 6.0768 C6.85175 6.0768 4.50929 6.0768 4.50929 6.0768 C4.76617 3.79294 6.69769 2.41802 9.03754 2.41802 C11.5517 2.41802 13.597 4.47368 13.597 7.00061 C13.597 9.52753 11.5517 11.5832 9.03754 11.5832 C8.37412 11.5832 7.83619 12.1236 7.83619 12.7907 C7.83619 13.4577 8.37412 13.9981 9.03754 13.9981 C12.8764 13.9981 15.9997 10.8592 15.9997 7.00061 C15.9997 3.14202 12.8764 0.00311088 9.03754 0.00311088 Z"/>
</svg>