<svg xmlns="http://www.w3.org/2000/svg"
	xmlns:xlink="http://www.w3.org/1999/xlink"
	width="46px" height="10px">
<defs>
</defs>
<path fill-rule="evenodd" fill="rgb(255,255,255)" d=" M44.7584 8.69224 C43.9319 9.55398 42.7472 9.98485 41.2044 9.98485 C39.6617 9.98485 38.477 9.55398 37.6506 8.69224 C36.8241 7.83049 36.4108 6.59319 36.4108 4.98011 C36.4108 3.36714 36.8251 2.13533 37.654 1.28457 C38.4827 0.433905 39.6708 0.00852298 41.2182 0.00852298 C42.7655 0.00852298 43.9491 0.437219 44.7687 1.29451 C45.5883 2.1519 45.9981 3.38485 45.9981 4.99337 C45.9981 6.59754 45.5848 7.83049 44.7584 8.69224 Z M41.2182 1.71875 C40.3687 1.71875 39.7282 1.99384 39.2966 2.54403 C38.865 3.09423 38.6492 3.91071 38.6492 4.99337 C38.6492 6.07614 38.8627 6.89149 39.2898 7.4394 C39.7168 7.98741 40.3549 8.26136 41.2044 8.26136 C42.9079 8.26136 43.7597 7.17207 43.7597 4.99337 C43.7597 2.81033 42.9125 1.71875 41.2182 1.71875 Z M27.858 9.85227 C27.858 9.85227 25.0067 9.85227 25.0067 9.85227 C25.0067 9.85227 25.0067 0.160987 25.0067 0.160987 C25.0067 0.160987 28.168 0.160987 28.168 0.160987 C29.8117 0.160987 31.0882 0.578601 31.9974 1.41383 C32.9065 2.24905 33.3611 3.41572 33.3611 4.91383 C33.3611 6.50919 32.8893 7.73106 31.9457 8.57955 C31.0021 9.42803 29.6395 9.85227 27.858 9.85227 Z M28.2782 1.8447 C28.2782 1.8447 27.1417 1.8447 27.1417 1.8447 C27.1417 1.8447 27.1417 8.1553 27.1417 8.1553 C27.1417 8.1553 28.0578 8.1553 28.0578 8.1553 C30.1147 8.1553 31.1433 7.09252 31.1433 4.96686 C31.1433 2.88542 30.1882 1.8447 28.2782 1.8447 Z M13.9675 2.52083 C13.9675 2.52083 13.9055 2.52083 13.9055 2.52083 C13.9927 3.81573 14.0364 4.73931 14.0364 5.29167 C14.0364 5.29167 14.0364 9.85227 14.0364 9.85227 C14.0364 9.85227 12.1286 9.85227 12.1286 9.85227 C12.1286 9.85227 12.1286 0.160987 12.1286 0.160987 C12.1286 0.160987 14.8215 0.160987 14.8215 0.160987 C14.8215 0.160987 19.1951 7.41951 19.1951 7.41951 C19.1951 7.41951 19.2433 7.41951 19.2433 7.41951 C19.1744 6.16004 19.14 5.26961 19.14 4.74811 C19.14 4.74811 19.14 0.160987 19.14 0.160987 C19.14 0.160987 21.0615 0.160987 21.0615 0.160987 C21.0615 0.160987 21.0615 9.85227 21.0615 9.85227 C21.0615 9.85227 18.3479 9.85227 18.3479 9.85227 C18.3479 9.85227 13.9675 2.52083 13.9675 2.52083 Z M6.3101 9.55398 C5.68097 9.8413 4.93715 9.98485 4.07859 9.98485 C2.78375 9.98485 1.77818 9.66563 1.06189 9.02699 C0.345614 8.38845 -0.0125349 7.51459 -0.0125349 6.4053 C-0.0125349 6.4053 -0.0125349 0.160987 -0.0125349 0.160987 C-0.0125349 0.160987 2.11568 0.160987 2.11568 0.160987 C2.11568 0.160987 2.11568 6.09375 2.11568 6.09375 C2.11568 6.84063 2.27172 7.38864 2.58401 7.73769 C2.8962 8.08684 3.41276 8.26136 4.13368 8.26136 C4.83157 8.26136 5.33779 8.0857 5.65236 7.73438 C5.96682 7.38305 6.12414 6.83182 6.12414 6.0805 C6.12414 6.0805 6.12414 0.160987 6.12414 0.160987 C6.12414 0.160987 8.25236 0.160987 8.25236 0.160987 C8.25236 0.160987 8.25236 6.43182 8.25236 6.43182 C8.25236 7.14773 8.08587 7.77529 7.75301 8.3144 C7.42004 8.8536 6.9391 9.26676 6.3101 9.55398 Z"/>
</svg>